<?xml version="1.0" encoding="UTF-8"?>
<svg id="Warstwa_2" data-name="Warstwa 2" xmlns="http://www.w3.org/2000/svg" viewBox="0 0 4216.93 470.33">
  <defs>
    <style>
      .cls-1 {
        fill: #f9eedf;
      }

      .cls-2 {
        fill: #462c1a;
      }

      .cls-3 {
        fill: #fefbf5;
      }

      .cls-4 {
        fill: #ee9f9f;
      }

      .cls-5 {
        fill: #482d1a;
      }

      .cls-6 {
        fill: #f9eede;
      }

      .cls-7 {
        fill: #ee9e9e;
      }

      .cls-8, .cls-9 {
        fill: #fff;
      }

      .cls-10 {
        fill: #472d1a;
      }

      .cls-9 {
        font-family: ArialRoundedMTBold, 'Arial Rounded MT Bold';
        font-size: 364.79px;
      }

      .cls-11 {
        fill: #472d1b;
      }

      .cls-12 {
        fill: #240f09;
      }

      .cls-13 {
        fill: #210b05;
      }
    </style>
  </defs>
  <g id="Warstwa_1-2" data-name="Warstwa 1">
    <g>
      <g>
        <path class="cls-2" d="M462.47.33c9.45-1.29,17.94,1.16,25.23,7.22,2.06,1.71,7.72,9.14,8.67,9.39,1.09.28,11.88-4.5,15.8-4.87,20.23-1.88,37.32,12.53,35.44,33.45-2.14,23.91-33.31,45.2-53.95,52.94-17.76,6.66-22.6,2.83-34.46-10.46-12.53-14.03-25.9-35.98-24.44-55.45,1.16-15.51,11.67-30.04,27.71-32.22Z"/>
        <path class="cls-7" d="M463.44,16.3c8.56-1.39,16.08,2.94,20.06,10.43,2.19,4.11,2.27,10.98,7.91,12.13,7.35,1.51,10.76-8.65,18.18-10.38,12.8-2.98,23.8,4.28,21.96,17.97-2.05,15.16-28.62,31.9-41.88,37.03-11.34,4.38-11.78,2.01-19.48-6.46-10.74-11.83-24.61-34.43-18.7-50.7,1.67-4.59,7.15-9.23,11.96-10.02Z"/>
      </g>
      <g>
        <path class="cls-10" d="M444.74,120.96c55.25-14.82,114.46,28.97,111.88,86.9,45.85,4.27,79.08,47.05,81.9,91.43,3.78,59.44-43.21,112.69-104.37,107.37-3.31-.29-11.83-3.14-13.89-2.74s-10.2,11.93-12.56,14.28c-27.39,27.21-71.84,35.19-107.45,20.79-52.9,44.2-130.16,40.01-182.8-2.3-2.06-.07-14.64,10.82-17.96,12.97-45.52,29.59-86.54,10.17-101.39-39.53-74.57-.35-121.41-79.75-86.13-145.99,7.99-14.99,20.53-28.21,35.22-36.71,3.12-1.81,17.9-7.69,18.43-8.55.7-1.14-.71-13.22-.52-16.49,2.82-47.88,51.57-86.96,98.93-77.84C186.98,45.12,270.29,1.07,349.81,23.55c46.14,13.04,82.93,51.14,94.93,97.41Z"/>
        <g>
          <path class="cls-3" d="M128.87,297.93c1.9,3.1-3.82,9.83-5.86,12.31-3.5,4.24-13.35,10.67-13.93,15.1-.49,3.73.88,6.55,4.86,6.94,6.71.66,21.76-22.01,28.33-24.74,3.15-1.31,7.62-1.33,9.21,2.26,4.8,10.78-19.36,21.84-18.4,33.36.37,4.41,4.22,5.35,8.18,4.36,6.43-1.62,12.31-20.33,20.7-13.21,7.51,6.37-.78,21.41-4.93,27.96-3.32,5.23-9.45,9.57-9.06,15.93.33,5.36,7.78,24.91,10.27,30.77,5.77,13.6,12.84,24.21,27.74,28.72-23.68,19.77-53.19,11.31-66.75-15.68-7.06-14.04-7.55-25.92-10.41-40.54-1.21-6.22-14.36-16.33-18.46-24.5-11.47-22.8-5.01-58.38,24.46-61.91,2.75-.33,12.82.89,14.05,2.9Z"/>
          <path class="cls-1" d="M27.13,347.73c-4.24-10.01-9.34-28.83-7.99-39.48.17-1.38.61-2.99,1.99-1.48.31.34,1.95,6.83,2.84,8.67,7.84,16.31,18.99,28.45,35.26,36.67,4.16,2.1,10.14,3.44,13.62,5.37,1.95,1.08,1.91,2.68,2.44,3.1.23.19.75-.87.81-.85.82.21,7.67,12.17,9.16,14.32,4.01,5.81,10.55,9.49,8.83,17.66-27.77-.46-56.08-18.3-66.94-43.96Z"/>
          <path class="cls-3" d="M135,286.79c-4.05-4.82-18.14-2.9-20.47-4.98-.62-.56-5.72-11.14-6.26-12.72-1.63-4.72-3.81-14.06,1.21-17.33,8.62-5.61,11.58,11.18,15.07,14.04,8.54,7.01,14.35-13.77,24.74-10.8,13.91,3.98-11.93,26.95-14.28,31.79Z"/>
          <path class="cls-13" d="M466.7,423.66c2.5.93-1.1,1.54-1.75,1.74-17.32,5.3-32.84,5.97-50.42.97-4.51-1.28-10.94-5.01-14.54-5.54-1.91-.28-4.15,1.38-5.23-.17,6.14-2.96,16.12,3.73,23.14,5.34,15.9,3.64,33.38,3.22,48.79-2.34Z"/>
          <path class="cls-12" d="M272.89,446.64c22.09,6.97,48.5,7.86,70.93,2l.56,1.04c-23.7,5.96-48.84,5.47-72.12-1.92l.63-1.12Z"/>
          <g>
            <path class="cls-6" d="M599.57,361.72c-13.12,18.67-38.76,28.82-61.48,27.01-7.81-.62-21.61-7.02-27.73-3.82-2.91,1.52-8.64,12.55-11.73,16.24-7.28,8.7-21.27,18.66-31.94,22.51-21.63,9.31-45.47,5.69-66.2-3.15l-5.73.15c-3.34,1.61-8.94,7.33-12.67,9.81-11.19,7.43-25.24,14.76-38.28,18.17-22.47,6.75-48.92,6.13-70.93-2-8.32-2.62-18.08-7.43-25.65-11.82-4.87-2.82-21.83-16.36-24.06-16.93-6.34-1.64-16.04,6.78-26.46,5.51-14.52-1.77-19.75-12.72-24.73-24.72v-4.99c8.65,4.6,22.99,3.47,32.17.7,5.52-1.67,13.2-8.05,19.05-7.47,4.15.41,10.54,8,14.24,10.74,35.17,26.1,88.29,32.51,127.67,11.84,7.12-3.74,23.23-18.61,28.39-19.6,5.44-1.05,23.51,6.17,31.69,6.82,21.97,1.75,45.49-6.28,61.02-21.97,4.73-4.78,8.07-11.79,12.43-16.55,10.44-11.39,15.37-3.37,26.48.54,27.19,9.57,61.5,1.55,79.95-20.99,3.23-3.95,10.42-15.39,12.02-19.95.69-1.97.49-4.01.47-6.03,1.92.28,1.01,5.04.87,6.37-1.72,15.76-9.92,30.87-18.86,43.58Z"/>
            <g>
              <path class="cls-8" d="M599.57,361.72l-.04-3.46c6.4-9.57,12.27-19.83,15-31.09-19.15,36.28-67.41,47.68-102.31,27.85-4.63-1.96-8.5.64-11.58,3.97-20.84,35.81-62.5,48.42-100.15,33.68-5.05-1.68-8.52-.8-12.55,2.58-44.16,41.31-118.25,36.14-161.36-4.5-2.86-2.52-4.97-2.07-8.2-.98-13.24,7.81-28.51,11.71-43.86,7.16l-2.53,1.75c-1.27-3.07-8-20.73-7.92-22.51s5.16-7.95,6.44-10.44c6.09-11.85,10.92-28.02,1.45-39.45-1.91-2.3-8.67-6.57-8.87-7.19-.52-1.64,1.14-5.67.85-8.71-.97-9.94-8.86-13.56-16.91-17.09,6.6-8.5,17.37-16.65,18.88-28.06,3.26-24.63-17.15-31.68-35.26-18.47-17.64-21.72-40.21-7.91-37.58,18.54.74,7.46,4.95,13.86,7.06,20.89-28.56,13.13-34.26,46.01-24.05,73.52,1.57,4.78-2.52,1.33-4.7-.76-22.84-6.84-41.38-23.19-50.45-45.62.59,11.02,3.54,21.86,7.43,32.13l-1.23,2.26c-21.01-35.76-4.9-87.9,31.92-106.44,6.4-3.22,23.33-6.21,25.89-11.07,2.51-4.79-1.56-13.9-1.9-19.82-2.19-37.53,33.08-71.68,70.51-68.51,6.9.58,16.92,6.62,22.35,3.45,5.28-3.09,6.76-18.25,9.07-24.9,37.5-108.03,200.1-115.18,239.82-2.02,2.07,5.89,3.58,20.45,9.21,22.75,5.95,2.43,9.49-1.44,14.72-2.74,50.56-12.5,91.56,24.3,89.87,74.88-.56,16.71,7.04,11.37,19.24,12.82,9.51,1.13,21.93,6.77,29.66,12.3,38.04,27.23,44.69,89.42,12.08,123.29Z"/>
              <g>
                <path class="cls-4" d="M428.51,266.1c17.78-1.72,39.46,10.93,30.94,30.93-7.95,18.66-43.32,20.65-55.12,4.69-13.34-18.04,6.72-33.93,24.18-35.62Z"/>
                <path class="cls-4" d="M190.73,267.07c13.41-1.95,32.32,3.49,36.53,17.89,8.17,27.95-38.57,36.48-53.71,13.75-9.05-13.6,2.59-29.52,17.18-31.64Z"/>
                <path class="cls-11" d="M221.72,213.15c15.05-1.45,30.66,8.62,35.38,23,2.24,6.82,3.43,19.79-6.69,19.79-8.15,0-7.67-8.79-9.99-14.1-5.56-12.71-21.14-15.11-29.47-3.49-3.71,5.18-2.8,9.14-4.79,14.19-3.65,9.27-13.82,5.87-15.1-3.3-2.41-17.2,13.92-34.49,30.65-36.1Z"/>
                <path class="cls-10" d="M395.53,213.13c15.67-2.02,31.17,8.35,36.4,23.03,2.31,6.48,4.38,21.79-5.68,21.78-8.24-.01-7.17-7.96-9-13.09-4.56-12.81-18.86-19.78-28.97-8.01-4.5,5.25-3.53,8.77-5.97,14.01-3.56,7.62-13.57,6.56-15.26-1.74-3.34-16.31,12.61-33.92,28.49-35.97Z"/>
                <path class="cls-5" d="M289.6,256.11c1.88,1.58,3.84,7.05,6.78,9.7,9.4,8.47,25,7.83,34-.95,4.05-3.95,7.75-14.94,16.02-9.11,8.87,6.26-6.6,24.09-13.26,27.85-17.66,9.97-51.75,3.98-55.19-18.35-1.34-8.73,4.62-15.05,11.65-9.14Z"/>
              </g>
            </g>
          </g>
        </g>
      </g>
    </g>
    <text class="cls-9" transform="translate(811.42 371.74)"><tspan x="0" y="0">THUNDERORDERS</tspan></text>
  </g>
</svg>