<?xml version="1.0" encoding="UTF-8"?>
<svg id="Warstwa_1" xmlns="http://www.w3.org/2000/svg" version="1.1" viewBox="0 0 274.1 192.4">
  <!-- Generator: Adobe Illustrator 30.1.0, SVG Export Plug-In . SVG Version: 2.1.1 Build 136)  -->
  <defs>
    <style>
      .st0 {
        isolation: isolate;
        opacity: .8;
      }

      .st1 {
        fill: #3b2f2f;
      }

      .st2 {
        fill: #fff;
      }

      .st3 {
        fill: #f7a7a7;
      }

      .st4 {
        fill: #f47c7c;
      }
    </style>
  </defs>
  <g>
    <path class="st2" d="M42.1,134c-30,0-50-30-30-60C-7.9,44,32.1,14,72.1,34c30-40,100-40,130,0,40-20,80,10,60,40,20,30,0,60-30,60H42.1Z"/>
    <path class="st1" d="M232.1,138H42.1c-16.1,0-30.5-8.2-37.5-21.3-6.9-12.9-5.9-28.4,2.8-42.7C.2,61.7,1.4,48.3,10.6,37.9c6.4-7.3,16-12.2,27-13.8,10.9-1.6,22.4,0,33.3,4.9C86,10.8,110.4,0,137.1,0s51.1,10.8,66.2,29c10.9-4.8,22.4-6.5,33.3-4.9,11,1.6,20.6,6.5,27,13.8,9.2,10.4,10.3,23.7,3.2,36,8.7,14.3,9.7,29.8,2.8,42.7-7,13.2-21.4,21.3-37.5,21.3ZM45.7,31.5c-12.5,0-23.1,4.8-29.2,11.7-7.3,8.3-7.7,18.7-1.2,28.6l1.5,2.2-1.5,2.2c-8.3,12.4-9.6,25.8-3.8,36.7,5.6,10.6,17.3,17.1,30.5,17.1h190c13.2,0,24.8-6.6,30.5-17.1,5.8-10.9,4.5-24.3-3.8-36.7l-1.5-2.2,1.5-2.2c6.6-9.9,6.1-20.3-1.2-28.6-9.9-11.2-31.5-16.7-53.7-5.6l-3,1.5-2-2.7c-13.3-17.8-36.4-28.4-61.8-28.4s-48.5,10.6-61.8,28.4l-2,2.7-3-1.5c-8.5-4.2-16.9-6-24.5-6Z"/>
  </g>
  <path class="st1" d="M142.1,118.1c-12.6,0-25.1-5.3-37.6-16-1.7-1.4-1.9-4-.4-5.6,1.4-1.7,4-1.9,5.6-.4,21.8,18.7,43,18.7,64.8,0,1.7-1.4,4.2-1.2,5.6.4,1.4,1.7,1.2,4.2-.4,5.6-12.5,10.7-25,16-37.6,16Z"/>
  <circle class="st1" cx="92.1" cy="89" r="10"/>
  <circle class="st1" cx="192.1" cy="89" r="10"/>
  <g class="st0">
    <circle class="st3" cx="82.1" cy="114" r="14"/>
  </g>
  <g class="st0">
    <circle class="st3" cx="202.1" cy="114" r="14"/>
  </g>
  <g>
    <path class="st2" d="M22.1,144c-20,40,20,60,30,30s-10-50-30-30Z"/>
    <path class="st1" d="M35.4,192.4c-6.6,0-13-3.4-17.4-9.3-3.6-4.9-10.7-18.7.4-40.9l.3-.6.5-.5c9.3-9.3,19.9-11.8,28.4-6.5,9,5.6,15,20.3,8.2,40.6-3.2,9.5-9.6,15.7-17.6,17-1,.1-1.9.2-2.9.2ZM25.4,146.4c-6.1,12.5-6.4,24.4-.8,32,3.2,4.4,8,6.6,12.5,5.9,5-.8,9-4.9,11.2-11.6,5.4-16.1,1.3-27.5-4.8-31.3-5-3.1-11.6-1.3-18.1,4.9Z"/>
  </g>
  <g>
    <path class="st4" d="M57.1,139c6.7-10,13.3-10,20,0-6.7,10-13.3,10-20,0Z"/>
    <path class="st1" d="M67.1,149c-4.3,0-8.2-2.8-12.1-8.6l-.9-1.4.9-1.4c3.9-5.8,7.8-8.6,12.1-8.6s8.2,2.8,12.1,8.6l.9,1.4-.9,1.4c-3.9,5.8-7.8,8.6-12.1,8.6ZM60.1,139c1.9,2.5,4.4,5,6.9,5s5.1-2.5,6.9-5c-1.9-2.5-4.4-5-6.9-5s-5.1,2.5-6.9,5Z"/>
  </g>
  <g>
    <path class="st4" d="M252.1,34c-6.7-13.3-16.7-15-30-5-13.3-10-23.3-8.3-30,5,0,20,10,36.7,30,50,20-13.3,30-30,30-50Z"/>
    <path class="st1" d="M222.1,87.6l-1.7-1.1c-20.8-13.9-31.3-31.5-31.3-52.5v-.7l.3-.6c3.5-7.1,8.1-11.4,13.7-12.7,5.6-1.3,12,.5,19,5.3,7-4.8,13.4-6.6,19-5.3,5.5,1.3,10.1,5.6,13.7,12.7l.3.6v.7c0,21-10.5,38.6-31.3,52.5l-1.7,1.1ZM195.1,34.7c.2,18.2,9.1,33.2,27,45.7,17.9-12.5,26.8-27.4,27-45.7-2.7-5.1-5.8-8-9.4-8.9-4.2-1-9.6.9-15.8,5.6l-1.8,1.4-1.8-1.4c-6.3-4.7-11.6-6.6-15.8-5.6-3.6.8-6.7,3.8-9.4,8.9Z"/>
  </g>
</svg>