<?xml version="1.0" encoding="UTF-8"?>
<svg id="Warstwa_2" xmlns="http://www.w3.org/2000/svg" version="1.1" viewBox="0 0 4216.9 470.3">
  <!-- Generator: Adobe Illustrator 30.0.0, SVG Export Plug-In . SVG Version: 2.1.1 Build 123)  -->
  <defs>
    <style>
      .st0 {
        fill: #f9eedf;
      }

      .st1 {
        fill: #fefbf5;
      }

      .st2 {
        fill: #ee9f9f;
      }

      .st3 {
        isolation: isolate;
      }

      .st4 {
        fill: #f9eede;
      }

      .st5 {
        fill: #ee9e9e;
      }

      .st6 {
        fill: #fff;
      }

      .st7 {
        fill: #240f09;
      }

      .st8 {
        fill: #210b05;
      }
    </style>
  </defs>
  <g id="Warstwa_1-2">
    <g>
      <g>
        <path d="M462.5.3c9.5-1.3,17.9,1.2,25.2,7.2,2.1,1.7,7.7,9.1,8.7,9.4,1.1.3,11.9-4.5,15.8-4.9,20.2-1.9,37.3,12.5,35.4,33.4-2.1,23.9-33.3,45.2-54,52.9-17.8,6.7-22.6,2.8-34.5-10.5-12.5-14-25.9-36-24.4-55.5,1.2-15.5,11.7-30,27.7-32.2h0Z"/>
        <path class="st5" d="M463.4,16.3c8.6-1.4,16.1,2.9,20.1,10.4,2.2,4.1,2.3,11,7.9,12.1,7.4,1.5,10.8-8.6,18.2-10.4,12.8-3,23.8,4.3,22,18-2,15.2-28.6,31.9-41.9,37-11.3,4.4-11.8,2-19.5-6.5-10.7-11.8-24.6-34.4-18.7-50.7,1.7-4.6,7.1-9.2,12-10h0Z"/>
      </g>
      <g>
        <path d="M444.7,121c55.2-14.8,114.5,29,111.9,86.9,45.8,4.3,79.1,47.1,81.9,91.4,3.8,59.4-43.2,112.7-104.4,107.4-3.3-.3-11.8-3.1-13.9-2.7s-10.2,11.9-12.6,14.3c-27.4,27.2-71.8,35.2-107.5,20.8-52.9,44.2-130.2,40-182.8-2.3-2.1,0-14.6,10.8-18,13-45.5,29.6-86.5,10.2-101.4-39.5-74.6-.4-121.4-79.8-86.1-146,8-15,20.5-28.2,35.2-36.7,3.1-1.8,17.9-7.7,18.4-8.6.7-1.1-.7-13.2-.5-16.5,2.8-47.9,51.6-87,98.9-77.8C187,45.1,270.3,1.1,349.8,23.5c46.1,13,82.9,51.1,94.9,97.4Z"/>
        <g>
          <path class="st1" d="M128.9,297.9c1.9,3.1-3.8,9.8-5.9,12.3-3.5,4.2-13.3,10.7-13.9,15.1-.5,3.7.9,6.5,4.9,6.9,6.7.7,21.8-22,28.3-24.7,3.1-1.3,7.6-1.3,9.2,2.3,4.8,10.8-19.4,21.8-18.4,33.4.4,4.4,4.2,5.4,8.2,4.4,6.4-1.6,12.3-20.3,20.7-13.2,7.5,6.4-.8,21.4-4.9,28-3.3,5.2-9.4,9.6-9.1,15.9.3,5.4,7.8,24.9,10.3,30.8,5.8,13.6,12.8,24.2,27.7,28.7-23.7,19.8-53.2,11.3-66.8-15.7-7.1-14-7.6-25.9-10.4-40.5-1.2-6.2-14.4-16.3-18.5-24.5-11.5-22.8-5-58.4,24.5-61.9,2.8-.3,12.8.9,14.1,2.9h0Z"/>
          <path class="st0" d="M27.1,347.7c-4.2-10-9.3-28.8-8-39.5.2-1.4.6-3,2-1.5.3.3,2,6.8,2.8,8.7,7.8,16.3,19,28.5,35.3,36.7,4.2,2.1,10.1,3.4,13.6,5.4,1.9,1.1,1.9,2.7,2.4,3.1.2.2.8-.9.8-.9.8.2,7.7,12.2,9.2,14.3,4,5.8,10.6,9.5,8.8,17.7-27.8-.5-56.1-18.3-66.9-44h0Z"/>
          <path class="st1" d="M135,286.8c-4.1-4.8-18.1-2.9-20.5-5-.6-.6-5.7-11.1-6.3-12.7-1.6-4.7-3.8-14.1,1.2-17.3,8.6-5.6,11.6,11.2,15.1,14,8.5,7,14.3-13.8,24.7-10.8,13.9,4-11.9,26.9-14.3,31.8h0Z"/>
          <path class="st8" d="M466.7,423.7c2.5.9-1.1,1.5-1.8,1.7-17.3,5.3-32.8,6-50.4,1-4.5-1.3-10.9-5-14.5-5.5-1.9-.3-4.1,1.4-5.2-.2,6.1-3,16.1,3.7,23.1,5.3,15.9,3.6,33.4,3.2,48.8-2.3h0Z"/>
          <path class="st7" d="M272.9,446.6c22.1,7,48.5,7.9,70.9,2l.6,1c-23.7,6-48.8,5.5-72.1-1.9l.6-1.1Z"/>
          <g>
            <path class="st4" d="M599.6,361.7c-13.1,18.7-38.8,28.8-61.5,27-7.8-.6-21.6-7-27.7-3.8-2.9,1.5-8.6,12.5-11.7,16.2-7.3,8.7-21.3,18.7-31.9,22.5-21.6,9.3-45.5,5.7-66.2-3.1h-5.7c-3.3,1.8-8.9,7.5-12.7,10-11.2,7.4-25.2,14.8-38.3,18.2-22.5,6.8-48.9,6.1-70.9-2-8.3-2.6-18.1-7.4-25.6-11.8-4.9-2.8-21.8-16.4-24.1-16.9-6.3-1.6-16,6.8-26.5,5.5-14.5-1.8-19.8-12.7-24.7-24.7v-5c8.6,4.6,23,3.5,32.2.7,5.5-1.7,13.2-8,19.1-7.5,4.1.4,10.5,8,14.2,10.7,35.2,26.1,88.3,32.5,127.7,11.8,7.1-3.7,23.2-18.6,28.4-19.6,5.4-1,23.5,6.2,31.7,6.8,22,1.8,45.5-6.3,61-22,4.7-4.8,8.1-11.8,12.4-16.5,10.4-11.4,15.4-3.4,26.5.5,27.2,9.6,61.5,1.5,80-21,3.2-4,10.4-15.4,12-20,.7-2,.5-4,.5-6,1.9.3,1,5,.9,6.4-1.7,15.8-9.9,30.9-18.9,43.6h0Z"/>
            <g>
              <path class="st6" d="M599.6,361.7v-3.5c6.4-9.6,12.2-19.8,15-31.1-19.2,36.3-67.4,47.7-102.3,27.9-4.6-2-8.5.6-11.6,4-20.8,35.8-62.5,48.4-100.1,33.7-5-1.7-8.5-.8-12.5,2.6-44.2,41.3-118.2,36.1-161.4-4.5-2.9-2.5-5-2.1-8.2-1-13.2,7.8-28.5,11.7-43.9,7.2l-2.5,1.8c-1.3-3.1-8-20.7-7.9-22.5s5.2-8,6.4-10.4c6.1-11.9,10.9-28,1.4-39.5-1.9-2.3-8.7-6.6-8.9-7.2-.5-1.6,1.1-5.7.9-8.7-1-9.9-8.9-13.6-16.9-17.1,6.6-8.5,17.4-16.6,18.9-28.1,3.3-24.6-17.1-31.7-35.3-18.5-17.6-21.7-40.2-7.9-37.6,18.5.7,7.5,4.9,13.9,7.1,20.9-28.6,13.1-34.3,46-24.1,73.5,1.6,4.8-2.5,1.3-4.7-.8-22.8-6.8-41.4-23.2-50.5-45.6.6,11,3.5,21.9,7.4,32.1l-1.2,2.3c-21-35.8-4.9-87.9,31.9-106.4,6.4-3.2,23.3-6.2,25.9-11.1,2.5-4.8-1.6-13.9-1.9-19.8-2.2-37.5,33.1-71.7,70.5-68.5,6.9.6,16.9,6.6,22.4,3.4,5.3-3.1,6.8-18.2,9.1-24.9,37.5-108,200.1-115.2,239.8-2,2.1,5.9,3.6,20.4,9.2,22.8,6,2.4,9.5-1.4,14.7-2.7,50.6-12.5,91.6,24.3,89.9,74.9-.6,16.7,7,11.4,19.2,12.8,9.5,1.1,21.9,6.8,29.7,12.3,38,27.2,44.7,89.4,12.1,123.3h0Z"/>
              <g>
                <path class="st2" d="M428.5,266.1c17.8-1.7,39.5,10.9,30.9,30.9-8,18.7-43.3,20.6-55.1,4.7-13.3-18,6.7-33.9,24.2-35.6Z"/>
                <path class="st2" d="M190.7,267.1c13.4-2,32.3,3.5,36.5,17.9,8.2,28-38.6,36.5-53.7,13.8-9.1-13.6,2.6-29.5,17.2-31.6h0Z"/>
                <path d="M221.7,213.1c15.1-1.4,30.7,8.6,35.4,23,2.2,6.8,3.4,19.8-6.7,19.8s-7.7-8.8-10-14.1c-5.6-12.7-21.1-15.1-29.5-3.5-3.7,5.2-2.8,9.1-4.8,14.2-3.6,9.3-13.8,5.9-15.1-3.3-2.4-17.2,13.9-34.5,30.6-36.1h0Z"/>
                <path d="M395.5,213.1c15.7-2,31.2,8.4,36.4,23,2.3,6.5,4.4,21.8-5.7,21.8-8.2,0-7.2-8-9-13.1-4.6-12.8-18.9-19.8-29-8-4.5,5.2-3.5,8.8-6,14-3.6,7.6-13.6,6.6-15.3-1.7-3.3-16.3,12.6-33.9,28.5-36h0Z"/>
                <path d="M289.6,256.1c1.9,1.6,3.8,7,6.8,9.7,9.4,8.5,25,7.8,34-1,4-4,7.8-14.9,16-9.1,8.9,6.3-6.6,24.1-13.3,27.8-17.7,10-51.8,4-55.2-18.4-1.3-8.7,4.6-15.1,11.6-9.1h0Z"/>
              </g>
            </g>
          </g>
        </g>
      </g>
    </g>
    <g class="st3">
      <g class="st3">
        <path d="M1009.5,154.3h-57.7v189.7c0,10.9-2.4,19-7.3,24.3-4.9,5.3-11.2,7.9-18.9,7.9s-14.2-2.7-19.1-8c-4.9-5.3-7.4-13.4-7.4-24.2v-189.7h-57.7c-9,0-15.7-2-20.1-6-4.4-4-6.6-9.2-6.6-15.8s2.3-12.1,6.9-16c4.6-3.9,11.2-5.9,19.9-5.9h168.1c9.1,0,15.9,2,20.4,6.1,4.5,4,6.7,9.3,6.7,15.9s-2.3,11.8-6.8,15.8c-4.5,4-11.3,6-20.3,6Z"/>
        <path d="M1121.2,138.2v74.8h114.2v-74.8c0-10.7,2.4-18.7,7.2-24,4.8-5.3,11.1-8,19-8s14.4,2.6,19.3,7.9c4.9,5.3,7.4,13.3,7.4,24.1v205.7c0,10.8-2.5,18.9-7.5,24.2-5,5.3-11.4,8-19.2,8s-14.3-2.7-19.1-8.1c-4.8-5.4-7.1-13.4-7.1-24.1v-87.8h-114.2v87.8c0,10.8-2.5,18.9-7.5,24.2-5,5.3-11.4,8-19.2,8s-14.3-2.7-19.1-8.1c-4.8-5.4-7.1-13.4-7.1-24.1v-205.7c0-10.7,2.3-18.7,7-24,4.7-5.3,11.1-8,19.1-8s14.4,2.6,19.3,7.9c4.9,5.3,7.4,13.3,7.4,24.1Z"/>
        <path d="M1345.4,263.8v-125.6c0-10.7,2.4-18.7,7.2-24s11.1-8,19-8,14.7,2.7,19.5,8c4.8,5.3,7.2,13.4,7.2,24v128.4c0,14.6,1.6,26.8,4.9,36.6,3.3,9.8,9.1,17.4,17.4,22.8,8.3,5.4,19.9,8.1,34.9,8.1s35.3-5.5,43.8-16.5c8.5-11,12.8-27.6,12.8-50v-129.5c0-10.8,2.4-18.8,7.1-24.1,4.7-5.3,11.1-7.9,19.1-7.9s14.4,2.6,19.3,7.9c4.9,5.3,7.4,13.3,7.4,24.1v125.6c0,20.4-2,37.5-6,51.1-4,13.7-11.5,25.6-22.5,36-9.5,8.8-20.5,15.2-33.1,19.2-12.6,4-27.3,6.1-44.2,6.1s-37.3-2.2-51.8-6.5c-14.5-4.3-26.3-11-35.4-20.1-9.1-9.1-15.9-20.7-20.1-34.9-4.3-14.2-6.4-31.1-6.4-50.9Z"/>
        <path d="M1691.2,137.9l101.7,153.9v-155.3c0-10.1,2.2-17.7,6.5-22.7,4.3-5,10.2-7.6,17.5-7.6s13.6,2.5,18,7.6c4.4,5,6.6,12.6,6.6,22.7v205.4c0,22.9-9.5,34.4-28.5,34.4s-9-.7-12.8-2c-3.8-1.4-7.4-3.5-10.7-6.5-3.3-3-6.4-6.4-9.3-10.4-2.9-4-5.7-8-8.5-12.2l-99.2-152.1v153c0,10-2.3,17.5-6.9,22.6s-10.6,7.7-17.8,7.7-13.5-2.6-18-7.7c-4.5-5.2-6.8-12.7-6.8-22.5v-201.5c0-8.5.9-15.3,2.8-20.1,2.3-5.3,6-9.7,11.2-13.1,5.2-3.4,10.9-5.1,16.9-5.1s8.8.8,12.2,2.3c3.4,1.5,6.4,3.6,8.9,6.2,2.6,2.6,5.2,6,7.8,10.2,2.7,4.2,5.4,8.5,8.3,13Z"/>
        <path d="M1932.2,110.6h68.9c17.9,0,33.3,1.7,46.1,5,12.8,3.3,24.5,9.6,34.9,18.7,27.2,23.3,40.8,58.7,40.8,106.2s-1.4,30-4.1,42.9c-2.7,12.9-6.9,24.6-12.6,35-5.7,10.4-13,19.7-21.9,27.9-7,6.3-14.7,11.3-23,15.1-8.3,3.8-17.2,6.5-26.8,8-9.6,1.5-20.3,2.3-32.3,2.3h-68.9c-9.6,0-16.9-1.5-21.7-4.4-4.9-2.9-8-7-9.5-12.3-1.5-5.3-2.2-12.1-2.2-20.6v-191.5c0-11.4,2.6-19.7,7.7-24.8s13.4-7.7,24.8-7.7ZM1952.6,152.5v177.2h40.1c8.8,0,15.7-.2,20.7-.7,5-.5,10.2-1.7,15.5-3.6,5.3-1.9,10-4.6,13.9-8,17.7-15,26.5-40.7,26.5-77.3s-3.9-45.1-11.7-57.9c-7.8-12.8-17.4-21-28.8-24.5-11.4-3.5-25.2-5.3-41.3-5.3h-34.9Z"/>
        <path d="M2341.5,151.4h-119.2v64.1h109.7c8.1,0,14.1,1.8,18.1,5.4,4,3.6,6,8.4,6,14.3s-2,10.8-5.9,14.5c-3.9,3.7-10,5.6-18.2,5.6h-109.7v74.3h123.3c8.3,0,14.6,1.9,18.8,5.8,4.2,3.9,6.3,9,6.3,15.4s-2.1,11.2-6.3,15.1c-4.2,3.9-10.5,5.8-18.8,5.8h-143.7c-11.5,0-19.8-2.6-24.8-7.7-5-5.1-7.6-13.4-7.6-24.8v-196.3c0-7.6,1.1-13.8,3.4-18.6,2.3-4.8,5.8-8.3,10.6-10.5,4.8-2.2,11-3.3,18.4-3.3h139.6c8.4,0,14.7,1.9,18.8,5.6,4.1,3.7,6.1,8.6,6.1,14.7s-2,11.1-6.1,14.9c-4.1,3.7-10.4,5.6-18.8,5.6Z"/>
        <path d="M2483.8,260.1h-18.5v83.9c0,11-2.4,19.2-7.3,24.4-4.9,5.2-11.2,7.8-19.1,7.8s-15-2.7-19.6-8.2c-4.6-5.5-6.9-13.5-6.9-24v-200.9c0-11.4,2.6-19.7,7.7-24.8,5.1-5.1,13.4-7.7,24.8-7.7h86c11.9,0,22,.5,30.5,1.5,8.4,1,16,3.1,22.8,6.1,8.2,3.4,15.4,8.4,21.7,14.8,6.3,6.4,11.1,13.9,14.3,22.4,3.3,8.5,4.9,17.5,4.9,27,0,19.5-5.5,35-16.5,46.7-11,11.6-27.6,19.9-50,24.8,9.4,5,18.3,12.4,26.9,22.1,8.5,9.7,16.2,20.1,22.9,31.1,6.7,11,11.9,20.9,15.7,29.7,3.7,8.8,5.6,14.9,5.6,18.3s-1.1,6.9-3.3,10.2c-2.2,3.4-5.2,6.1-9,8-3.8,2-8.2,2.9-13.2,2.9s-10.9-1.4-15-4.2c-4-2.8-7.5-6.3-10.4-10.6-2.9-4.3-6.9-10.6-11.8-18.9l-21.2-35.3c-7.6-12.9-14.4-22.8-20.4-29.6-6-6.8-12.1-11.4-18.3-13.9-6.2-2.5-14-3.7-23.3-3.7ZM2514.1,150.3h-48.8v71.8h47.4c12.7,0,23.4-1.1,32.1-3.3,8.7-2.2,15.3-5.9,19.9-11.2,4.6-5.3,6.9-12.6,6.9-21.8s-1.8-13.6-5.5-19.1c-3.7-5.5-8.8-9.6-15.3-12.4-6.2-2.6-18.3-3.9-36.5-3.9Z"/>
        <path d="M2790,106.2c27.1,0,50.3,5.5,69.7,16.5,19.4,11,34.1,26.6,44.1,46.8,10,20.2,15,44,15,71.3s-2.7,38.5-8.2,55c-5.5,16.5-13.7,30.8-24.6,42.9-10.9,12.1-24.3,21.4-40.3,27.8-15.9,6.4-34.1,9.6-54.7,9.6s-38.7-3.3-54.9-9.9c-16.2-6.6-29.6-15.9-40.4-27.9-10.8-12-19-26.4-24.5-43.3-5.5-16.9-8.3-35.1-8.3-54.7s2.9-38.5,8.6-55.2c5.8-16.7,14.1-31,25-42.7,10.9-11.8,24.2-20.8,39.9-27,15.7-6.2,33.5-9.4,53.4-9.4ZM2865.1,240.5c0-19.1-3.1-35.7-9.3-49.7-6.2-14-15-24.6-26.5-31.8-11.5-7.2-24.6-10.8-39.5-10.8s-20.3,2-29.3,6c-9,4-16.7,9.8-23.2,17.4-6.5,7.6-11.6,17.3-15.3,29.1-3.7,11.8-5.6,25.1-5.6,39.8s1.9,28.3,5.6,40.3c3.7,12,9,21.9,15.9,29.8,6.8,7.9,14.7,13.8,23.5,17.7,8.8,3.9,18.6,5.9,29.1,5.9s26-3.4,37.3-10.2c11.3-6.8,20.4-17.2,27.1-31.3,6.7-14.1,10.1-31.5,10.1-52.2Z"/>
        <path d="M3035.1,260.1h-18.5v83.9c0,11-2.4,19.2-7.3,24.4-4.9,5.2-11.2,7.8-19.1,7.8s-15-2.7-19.6-8.2c-4.6-5.5-6.9-13.5-6.9-24v-200.9c0-11.4,2.6-19.7,7.7-24.8,5.1-5.1,13.4-7.7,24.8-7.7h86c11.9,0,22,.5,30.5,1.5,8.4,1,16,3.1,22.8,6.1,8.2,3.4,15.4,8.4,21.7,14.8,6.3,6.4,11.1,13.9,14.3,22.4,3.3,8.5,4.9,17.5,4.9,27,0,19.5-5.5,35-16.5,46.7-11,11.6-27.6,19.9-50,24.8,9.4,5,18.3,12.4,26.9,22.1,8.5,9.7,16.2,20.1,22.9,31.1,6.7,11,11.9,20.9,15.7,29.7,3.7,8.8,5.6,14.9,5.6,18.3s-1.1,6.9-3.3,10.2c-2.2,3.4-5.2,6.1-9,8-3.8,2-8.2,2.9-13.2,2.9s-10.9-1.4-15-4.2c-4-2.8-7.5-6.3-10.4-10.6-2.9-4.3-6.9-10.6-11.8-18.9l-21.2-35.3c-7.6-12.9-14.4-22.8-20.4-29.6-6-6.8-12.1-11.4-18.3-13.9-6.2-2.5-14-3.7-23.3-3.7ZM3065.4,150.3h-48.8v71.8h47.4c12.7,0,23.4-1.1,32.1-3.3,8.7-2.2,15.3-5.9,19.9-11.2,4.6-5.3,6.9-12.6,6.9-21.8s-1.8-13.6-5.5-19.1c-3.7-5.5-8.8-9.6-15.3-12.4-6.2-2.6-18.3-3.9-36.5-3.9Z"/>
        <path d="M3259.1,110.6h68.9c17.9,0,33.3,1.7,46.1,5,12.8,3.3,24.5,9.6,34.9,18.7,27.2,23.3,40.8,58.7,40.8,106.2s-1.4,30-4.1,42.9c-2.7,12.9-6.9,24.6-12.6,35-5.7,10.4-13,19.7-21.9,27.9-7,6.3-14.7,11.3-23,15.1-8.3,3.8-17.2,6.5-26.8,8-9.6,1.5-20.3,2.3-32.3,2.3h-68.9c-9.6,0-16.9-1.5-21.7-4.4-4.9-2.9-8-7-9.5-12.3-1.5-5.3-2.2-12.1-2.2-20.6v-191.5c0-11.4,2.6-19.7,7.7-24.8s13.4-7.7,24.8-7.7ZM3279.6,152.5v177.2h40.1c8.8,0,15.7-.2,20.7-.7,5-.5,10.2-1.7,15.5-3.6,5.3-1.9,10-4.6,13.9-8,17.7-15,26.5-40.7,26.5-77.3s-3.9-45.1-11.7-57.9c-7.8-12.8-17.4-21-28.8-24.5-11.4-3.5-25.2-5.3-41.3-5.3h-34.9Z"/>
        <path d="M3668.5,151.4h-119.2v64.1h109.7c8.1,0,14.1,1.8,18.1,5.4,4,3.6,6,8.4,6,14.3s-2,10.8-5.9,14.5c-3.9,3.7-10,5.6-18.2,5.6h-109.7v74.3h123.3c8.3,0,14.6,1.9,18.8,5.8,4.2,3.9,6.3,9,6.3,15.4s-2.1,11.2-6.3,15.1c-4.2,3.9-10.5,5.8-18.8,5.8h-143.7c-11.5,0-19.8-2.6-24.8-7.7-5-5.1-7.6-13.4-7.6-24.8v-196.3c0-7.6,1.1-13.8,3.4-18.6,2.3-4.8,5.8-8.3,10.6-10.5,4.8-2.2,11-3.3,18.4-3.3h139.6c8.4,0,14.7,1.9,18.8,5.6,4.1,3.7,6.1,8.6,6.1,14.7s-2,11.1-6.1,14.9c-4.1,3.7-10.4,5.6-18.8,5.6Z"/>
        <path d="M3810.8,260.1h-18.5v83.9c0,11-2.4,19.2-7.3,24.4-4.9,5.2-11.2,7.8-19.1,7.8s-15-2.7-19.6-8.2c-4.6-5.5-6.9-13.5-6.9-24v-200.9c0-11.4,2.6-19.7,7.7-24.8,5.1-5.1,13.4-7.7,24.8-7.7h86c11.9,0,22,.5,30.5,1.5,8.4,1,16,3.1,22.8,6.1,8.2,3.4,15.4,8.4,21.7,14.8,6.3,6.4,11.1,13.9,14.3,22.4,3.3,8.5,4.9,17.5,4.9,27,0,19.5-5.5,35-16.5,46.7-11,11.6-27.6,19.9-50,24.8,9.4,5,18.3,12.4,26.9,22.1,8.5,9.7,16.2,20.1,22.9,31.1,6.7,11,11.9,20.9,15.7,29.7,3.7,8.8,5.6,14.9,5.6,18.3s-1.1,6.9-3.3,10.2c-2.2,3.4-5.2,6.1-9,8-3.8,2-8.2,2.9-13.2,2.9s-10.9-1.4-15-4.2c-4-2.8-7.5-6.3-10.4-10.6-2.9-4.3-6.9-10.6-11.8-18.9l-21.2-35.3c-7.6-12.9-14.4-22.8-20.4-29.6-6-6.8-12.1-11.4-18.3-13.9-6.2-2.5-14-3.7-23.3-3.7ZM3841.1,150.3h-48.8v71.8h47.4c12.7,0,23.4-1.1,32.1-3.3,8.7-2.2,15.3-5.9,19.9-11.2,4.6-5.3,6.9-12.6,6.9-21.8s-1.8-13.6-5.5-19.1c-3.7-5.5-8.8-9.6-15.3-12.4-6.2-2.6-18.3-3.9-36.5-3.9Z"/>
        <path d="M4200.5,293.4c0,15.8-4.1,30-12.2,42.6-8.1,12.6-20,22.4-35.7,29.6s-34.3,10.7-55.8,10.7-47-4.9-63.8-14.6c-11.9-7-21.5-16.4-28.9-28.1-7.4-11.7-11.1-23.1-11.1-34.1s2.2-11.9,6.7-16.5c4.5-4.6,10.1-6.9,17-6.9s10.3,1.8,14.2,5.3c3.9,3.6,7.2,8.8,9.9,15.9,3.3,8.3,6.9,15.3,10.8,20.8,3.9,5.6,9.3,10.2,16.3,13.8,7,3.6,16.2,5.4,27.6,5.4s28.4-3.7,38.2-11c9.8-7.3,14.7-16.4,14.7-27.3s-2.6-15.7-7.9-21.1c-5.3-5.4-12.1-9.5-20.5-12.4-8.4-2.9-19.6-5.9-33.6-9.1-18.8-4.4-34.5-9.5-47.1-15.4-12.6-5.9-22.7-13.9-30.1-24-7.4-10.2-11.1-22.8-11.1-37.9s3.9-27.1,11.8-38.3c7.8-11.2,19.2-19.7,34-25.7,14.8-6,32.3-9,52.4-9s29.9,2,41.6,6c11.7,4,21.4,9.3,29.1,15.9,7.7,6.6,13.4,13.5,16.9,20.8,3.6,7.2,5.3,14.3,5.3,21.2s-2.2,12-6.7,17c-4.5,5-10,7.6-16.7,7.6s-10.7-1.5-13.8-4.5c-3.1-3-6.6-8-10.2-14.9-4.8-9.9-10.5-17.5-17.1-23.1-6.7-5.5-17.3-8.3-32.1-8.3s-24.7,3-33,9c-8.4,6-12.6,13.2-12.6,21.6s1.4,9.7,4.3,13.5c2.9,3.8,6.8,7.1,11.8,9.8,5,2.7,10,4.9,15.1,6.4,5.1,1.5,13.5,3.8,25.3,6.8,14.7,3.4,28.1,7.2,40,11.4,11.9,4.2,22.1,9.2,30.5,15.1,8.4,5.9,14.9,13.4,19.6,22.5,4.7,9.1,7,20.2,7,33.4Z"/>
      </g>
    </g>
  </g>
</svg>